<?xml version="1.0" encoding="UTF-8"?><svg id="Layer_1" xmlns="http://www.w3.org/2000/svg" viewBox="0 0 1000 1000"><path d="M378.9,421.38c-6.61,3.12-14.55,6.56-23.59,10.04-73.25,28.16-142.27,27.72-142.37,26.71,0-.62,26.75-1.28,68.09-10.93,39.84-9.31,71.94-22.02,95.17-32.89-20.23-46.78-92.15-102.34-167.09-104.06-30.85-.71-56.65,7.85-74.72,16.17-2.26-5.05-4.51-10.11-6.75-15.15-.42-1.86-10.33-43.05-45.58-52.68-12.27-3.34-34.07-4.64-44.58,7.76-15.56,18.34,2.08,56.7,6.75,67.77,18.07,42.89,31.52,127.03,8.76,308.92,2.62,14.92,13.9,9.7,31.61,11.15l54.2-.25c5.84,0,8.76-2.83,8.76-8.5,.02-1,.02-2.13,0-3.39-.07-7.61-2.41-62.77-2.65-78.16-.15-9.18-.08-22.88,1.11-39.79,6.46-.64,12.91-1.3,19.37-1.94,16.13-1,37.39-3.09,62.01-7.75,60.97-11.53,142.13-26.86,153.1-65.89,2.28-8.08,1.57-17.33-1.6-27.12Zm-213.51-40.72c-11.76,0-21.31-9.53-21.31-21.31s9.55-21.31,21.31-21.31,21.33,9.53,21.33,21.31-9.55,21.31-21.33,21.31Zm18.97-126.86c-3.41-3.09-9.89-8.76-19.96-10.9-4.05-.86-14.77-3.16-23.03,2.82-8.05,5.8-9.23,16.15-10.06,23.34-1.32,11.63,2.41,16.1,4.3,37.78,.44,5.06,.62,9.2,.73,11.81,7.81-4.05,18.24-8.5,31-11.63,15.41-3.76,28.89-4.27,38.76-3.86-.61-7.93-3.44-32.91-21.73-49.36Z"/><path d="M443.2,566.65c0,10.6-3.41,16.63-10.23,18.1-1.16,.21-12.02,1.36-32.59,3.46-12.38,1.36-30.85,2.99-55.41,4.88,1.47,6.82,5.93,12.02,13.38,15.58,6.09,2.94,13.01,4.41,20.78,4.41,9.34,0,18.73-2.52,28.18-7.56,3.99-2.52,7.97-5.04,11.96-7.56,2.2,1.05,5.9,6.4,11.1,16.06,5.19,9.66,7.79,15.8,7.79,18.42,0,.74-.79,1.94-2.36,3.62-12.8,13.75-32.69,20.62-59.66,20.62-24.98,0-45.13-7.29-60.45-21.88-15.74-14.8-23.61-34.58-23.61-59.35s7.03-43.92,21.09-59.35c14.48-15.95,33.69-23.93,57.61-23.93,20.15,0,37.25,7.35,51.32,22.04,14.06,14.69,21.09,32.17,21.09,52.42Zm-55.1-9.6c0-6.51-2.31-12.22-6.93-17.16-4.62-4.93-10.13-7.4-16.53-7.4s-12.07,2.78-16.37,8.34c-3.99,5.14-5.98,11.18-5.98,18.1,0,2.83,1.47,4.25,4.41,4.25,7.77,0,19.83-1.21,36.21-3.62,3.46-.52,5.19-1.36,5.19-2.52Z"/><path d="M565.82,606c0,3.15-.39,7.92-1.18,14.33-.79,6.4-1.18,11.1-1.18,14.09s-.32,4.91-.94,5.75c-.63,.84-2.36,2.05-5.19,3.62-13.54,7.45-28.55,11.18-45.02,11.18-30.33,0-45.49-11.59-45.49-34.79,0-6.93,.26-17.34,.79-31.25,.52-13.9,.79-24.32,.79-31.25,0-4.62-2.68-6.93-8.03-6.93h-2.05c-.94,.11-1.63,.16-2.05,.16-3.99,0-5.98-1.42-5.98-4.25,0-1.68,.13-4.25,.39-7.71,.26-3.46,.39-6.03,.39-7.71,0-2.2-.13-5.56-.39-10.07-.26-4.51-.39-7.87-.39-10.07s3.36-3.25,10.08-3.46c3.78-.1,5.82-1.15,6.14-3.15,.63-3.99,.84-10.28,.63-18.89-.42-13.54-.63-19.99-.63-19.36,0-12.17,1.15-18.26,3.46-18.26,2.83,0,6.87,.63,12.12,1.89,5.98,1.37,10.13,2.15,12.44,2.36,5.35,.74,13.43,1.73,24.24,2.99,2.62,.21,3.94,1.1,3.94,2.68,0,4.2-.34,10.55-1.03,19.05-.68,8.5-1.02,14.9-1.02,19.2,0,5.14,1.52,7.71,4.56,7.71,3.67,0,9.23-.16,16.69-.47,7.45-.31,13.07-.47,16.84-.47,2.31,0,3.46,.79,3.46,2.36,0,2.42-.26,6.04-.79,10.86-.53,4.83-.79,8.45-.79,10.86s.05,6.19,.16,11.02c.1,4.83,.16,8.5,.16,11.02,0,2.2-1.52,3.31-4.56,3.31-2.1,0-5.62-.08-10.55-.24-4.93-.16-8.45-.24-10.55-.24h-11.81c-1.57,0-2.36,2.31-2.36,6.93v11.18c.1,5.04,.16,8.76,.16,11.18,0,8.82,1,14.9,2.99,18.26,2.84,4.51,8.4,6.77,16.69,6.77,2.62,0,6.38-.6,11.26-1.81,4.88-1.21,8.32-1.81,10.31-1.81,2.2,0,3.31,1.16,3.31,3.46Z"/><path d="M640.6,579.87c0,7.66,.16,19.07,.47,34.24,.31,15.17,.47,26.52,.47,34.08,0,2.2-1.31,3.52-3.94,3.94-3.57,.63-11.6,.94-24.09,.94s-20.68-.32-24.24-.94c-2.31-.42-3.73-1.1-4.25-2.05-.21-.42-.31-1.99-.31-4.72,0-7.24,.16-18.13,.47-32.66,.32-14.53,.47-25.47,.47-32.82,0-29.8-1.16-53.52-3.46-71.15-.21-1.68-.32-2.78-.32-3.31,0-2.1,1.42-3.15,4.25-3.15s7.42,.32,13.46,.94c6.03,.63,10.57,.94,13.62,.94s7.61-.26,13.7-.79c6.08-.52,10.65-.79,13.7-.79,2.52,0,3.78,1.05,3.78,3.15,0,.42-.11,1.42-.31,2.99-2.31,20.46-3.46,44.18-3.46,71.15Zm4.09-116.96c0,18.26-10.29,27.39-30.85,27.39-8.82,0-16.11-2.31-21.88-6.93-6.3-5.04-9.44-11.86-9.44-20.46s3.25-14.9,9.76-20.15c5.98-4.83,13.17-7.24,21.57-7.24s15.27,2.47,21.25,7.4c6.4,5.25,9.6,11.91,9.6,19.99Z"/><path d="M775.19,548.55c-.11,0-3.28-.84-9.52-2.52-6.24-1.68-11.31-2.52-15.19-2.52-9.34,0-16.79,2.81-22.35,8.42-5.56,5.62-8.34,13.09-8.34,22.43s3.04,17.24,9.13,22.75c6.09,5.51,14.01,8.26,23.77,8.26,4.62,0,9.81-1.18,15.58-3.54,5.77-2.36,8.5-3.54,8.19-3.54,1.78,0,4.09,6.67,6.93,19.99,2.41,12.18,3.62,20.25,3.62,24.24s-6.51,7.4-19.52,10.23c-10.07,2.2-18.21,3.31-24.4,3.31-23.09,0-42.14-7.77-57.14-23.3-15.01-15.53-22.51-34.89-22.51-58.09s7.53-42.32,22.59-58.01c15.06-15.69,34.08-23.53,57.06-23.53,15.64,0,29.38,3.36,41.24,10.07,2.73,1.47,4.09,2.89,4.09,4.25s-1.57,7.56-4.72,18.57c-2.94,10.6-4.86,17-5.75,19.21-.89,2.2-1.81,3.31-2.75,3.31Z"/><path d="M963.3,573.42c0,8.08,.47,20.1,1.42,36.05,.94,15.95,1.42,27.92,1.42,35.89,0,4.2-1.84,6.45-5.51,6.77-13.01,.94-27.92,1.42-44.71,1.42-2,0-3.33-3.02-4.01-9.05-.68-6.03-1.5-9.1-2.44-9.21-.84,.42-1.94,1.31-3.31,2.68-11.75,11.86-24.35,17.79-37.78,17.79-20.46,0-37.41-8.08-50.84-24.24-12.7-15.11-19.05-33.16-19.05-54.15,0-24.24,6.56-43.76,19.68-58.56,13.64-15.32,32.32-22.98,56.04-22.98,16.48,0,29.49,5.77,39.04,17.32,.42,.53,.79,.79,1.1,.79,.95,0,2.02-2.54,3.23-7.63,1.2-5.09,2.65-7.63,4.33-7.63,3.88,0,11.28,1.1,22.2,3.31,10.39,2.1,17.84,3.88,22.35,5.35,1.57,.63,2.36,1.47,2.36,2.52,0,.42-.16,1.52-.47,3.31-3.36,19-5.04,39.09-5.04,60.29Zm-50.69,.94c0-8.92-2.81-16.29-8.42-22.12-5.61-5.82-12.93-8.74-21.96-8.74s-16.32,2.89-21.88,8.66c-5.56,5.77-8.34,13.17-8.34,22.2,0,8.5,2.94,15.8,8.82,21.88,5.88,6.09,13.01,9.13,21.41,9.13,8.92,0,16.21-2.91,21.88-8.74,5.67-5.82,8.5-13.25,8.5-22.27Z"/><path d="M351.43,332.21c-12.84,0-23.25,10.85-23.25,24.23s10.41,24.21,23.25,24.21c9.3,0,17.31-5.65,21.04-13.85-.98-.46-1.65-1.47-1.65-2.62,0-1.6,1.3-2.9,2.9-2.9,.17,0,.34,.02,.51,.05,.3-1.59,.47-3.22,.47-4.89,0-13.38-10.41-24.23-23.27-24.23Zm7.76,38.76c-2.14,0-3.88-1.74-3.88-3.86s1.74-3.88,3.88-3.88,3.86,1.74,3.86,3.88-1.72,3.86-3.86,3.86Z"/></svg>